<svg width="45" height="48" viewBox="0 0 45 48" fill="none" xmlns="http://www.w3.org/2000/svg">
<g clip-path="url(#clip0)" filter="url(#filter0_dd)">
<path d="M25.3035 28.5845C21.2121 26.1449 17.7987 22.7315 15.3588 18.6397L20.5248 13.4737L10.5803 3.52893L6.41286 7.69611C3.99068 10.1183 3.31624 13.8066 4.73531 16.8743C6.6335 20.9783 9.08314 24.7551 12.0159 28.0996C16.2221 32.896 21.3241 36.6701 27.1801 39.3166C30.1806 40.6725 33.8079 39.9697 36.2059 37.5716L40.4143 33.3632L30.4696 23.4185L25.3035 28.5845ZM34.5485 35.9142C32.8347 37.6281 30.2614 38.1368 28.1453 37.1804C16.1962 31.7803 9.97609 22.6223 6.86269 15.8904C5.85469 13.7108 6.33992 11.0839 8.07027 9.35352L10.5803 6.84375L17.21 13.4737L12.4413 18.2427L12.8707 19.0154C15.6878 24.0862 19.8571 28.2558 24.9282 31.0729L25.7009 31.5023L30.4696 26.7336L37.0995 33.3632L34.5485 35.9142Z" fill="#010101"/>
<path fill-rule="evenodd" clip-rule="evenodd" d="M30.8029 14.092C29.4598 12.7862 27.7009 12 26 12V10C28.2991 10 30.5402 11.0472 32.1971 12.658C33.8579 14.2726 35 16.5206 35 19H33C33 17.1461 32.1421 15.394 30.8029 14.092Z" fill="#010101"/>
<path fill-rule="evenodd" clip-rule="evenodd" d="M33.5529 11.2795C31.4598 9.24451 28.7009 8 26 8V6C29.2991 6 32.5402 7.50549 34.9471 9.8455C37.3579 12.1893 39 15.4372 39 19H37C37 16.0628 35.6421 13.3107 33.5529 11.2795Z" fill="#010101"/>
</g>
<defs>
<filter id="filter0_dd" x="0" y="0" width="48" height="48" filterUnits="userSpaceOnUse" color-interpolation-filters="sRGB">
<feFlood flood-opacity="0" result="BackgroundImageFix"/>
<feColorMatrix in="SourceAlpha" type="matrix" values="0 0 0 0 0 0 0 0 0 0 0 0 0 0 0 0 0 0 127 0"/>
<feOffset dy="4"/>
<feGaussianBlur stdDeviation="2"/>
<feColorMatrix type="matrix" values="0 0 0 0 0 0 0 0 0 0 0 0 0 0 0 0 0 0 0.25 0"/>
<feBlend mode="normal" in2="BackgroundImageFix" result="effect1_dropShadow"/>
<feColorMatrix in="SourceAlpha" type="matrix" values="0 0 0 0 0 0 0 0 0 0 0 0 0 0 0 0 0 0 127 0"/>
<feOffset dy="4"/>
<feGaussianBlur stdDeviation="2"/>
<feColorMatrix type="matrix" values="0 0 0 0 0 0 0 0 0 0 0 0 0 0 0 0 0 0 0.25 0"/>
<feBlend mode="normal" in2="effect1_dropShadow" result="effect2_dropShadow"/>
<feBlend mode="normal" in="SourceGraphic" in2="effect2_dropShadow" result="shape"/>
</filter>
<clipPath id="clip0">
<rect width="40" height="40" fill="white" transform="translate(4)"/>
</clipPath>
</defs>
</svg>
